<svg width="307" height="70" viewBox="0 0 307 70" fill="none" xmlns="http://www.w3.org/2000/svg">
<g clip-path="url(#clip0)">
<path d="M36.0938 12.9062C36.0938 13.4531 35.5469 14 35 14C34.4531 14 33.9062 13.4531 33.9062 12.9062V1.09375C33.9062 0.4375 34.4531 0 35 0C35.5469 0 36.0938 0.4375 36.0938 1.09375V12.9062Z" fill="#B2C1C0"/>
<path d="M4.375 30.625H65.625V65.625H4.375V30.625Z" fill="#E5DEC1"/>
<path d="M66.1719 21.6562C65.625 20.5625 64.2032 19.6875 62.8907 19.6875H7.00002C5.7969 19.6875 4.26565 20.5625 3.71877 21.6562L0.109397 28.6563C-0.437479 29.75 0.109397 30.625 1.31252 30.625H68.4688C69.6719 30.625 70.2188 29.75 69.6719 28.6563L66.1719 21.6562Z" fill="#D33B23"/>
<path d="M16.4062 49.2188C16.4062 49.7656 15.9688 50.3125 15.3125 50.3125H8.75C8.09375 50.3125 7.65625 49.7656 7.65625 49.2188V44.8438C7.65625 44.2969 8.09375 43.75 8.75 43.75H15.3125C15.9688 43.75 16.4062 44.2969 16.4062 44.8438V49.2188Z" fill="#D6EEF0"/>
<path d="M16.4062 38.2812C16.4062 38.8281 15.9688 39.375 15.3125 39.375H8.75C8.09375 39.375 7.65625 38.8281 7.65625 38.2812V33.9062C7.65625 33.3594 8.09375 32.8125 8.75 32.8125H15.3125C15.9688 32.8125 16.4062 33.3594 16.4062 33.9062V38.2812Z" fill="#D6EEF0"/>
<path d="M15.3125 39.9219H8.75C7.875 39.9219 7.10938 39.1562 7.10938 38.2812V33.9062C7.10938 33.0312 7.875 32.2656 8.75 32.2656H15.3125C16.1875 32.2656 16.9531 33.0312 16.9531 33.9062V38.2812C16.9531 39.1562 16.1875 39.9219 15.3125 39.9219ZM8.75 33.3594C8.42188 33.3594 8.20312 33.5781 8.20312 33.9062V38.2812C8.20312 38.6094 8.42188 38.8281 8.75 38.8281H15.3125C15.6406 38.8281 15.8594 38.6094 15.8594 38.2812V33.9062C15.8594 33.5781 15.6406 33.3594 15.3125 33.3594H8.75Z" fill="#DBB471"/>
<path d="M11.4844 32.8125H12.5781V39.375H11.4844V32.8125Z" fill="#DBB471"/>
<path d="M15.3125 51.4062H8.75C7.875 51.4062 7.10938 50.6406 7.10938 49.7656V45.3906C7.10938 44.5156 7.875 43.75 8.75 43.75H15.3125C16.1875 43.75 16.9531 44.5156 16.9531 45.3906V49.7656C16.9531 50.6406 16.1875 51.4062 15.3125 51.4062ZM8.75 44.8438C8.42188 44.8438 8.20312 45.0625 8.20312 45.3906V49.7656C8.20312 50.0938 8.42188 50.3125 8.75 50.3125H15.3125C15.6406 50.3125 15.8594 50.0938 15.8594 49.7656V45.3906C15.8594 45.0625 15.6406 44.8438 15.3125 44.8438H8.75Z" fill="#DBB471"/>
<path d="M11.4844 44.2969H12.5781V50.8594H11.4844V44.2969Z" fill="#DBB471"/>
<path d="M16.4062 60.1562C16.4062 60.7031 15.9688 61.25 15.3125 61.25H8.75C8.09375 61.25 7.65625 60.7031 7.65625 60.1562V55.7812C7.65625 55.2344 8.09375 54.6875 8.75 54.6875H15.3125C15.9688 54.6875 16.4062 55.2344 16.4062 55.7812V60.1562Z" fill="#D6EEF0"/>
<path d="M15.3125 62.3438H8.75C7.875 62.3438 7.10938 61.5781 7.10938 60.7031V56.3281C7.10938 55.4531 7.875 54.6875 8.75 54.6875H15.3125C16.1875 54.6875 16.9531 55.4531 16.9531 56.3281V60.7031C16.9531 61.5781 16.1875 62.3438 15.3125 62.3438ZM8.75 55.7812C8.42188 55.7812 8.20312 56 8.20312 56.3281V60.7031C8.20312 61.0312 8.42188 61.25 8.75 61.25H15.3125C15.6406 61.25 15.8594 61.0312 15.8594 60.7031V56.3281C15.8594 56 15.6406 55.7812 15.3125 55.7812H8.75Z" fill="#DBB471"/>
<path d="M11.4844 55.2344H12.5781V61.7969H11.4844V55.2344Z" fill="#DBB471"/>
<path d="M62.3438 49.2188C62.3438 49.7656 61.7969 50.3125 61.25 50.3125H54.6875C54.1406 50.3125 53.5938 49.7656 53.5938 49.2188V44.8438C53.5938 44.2969 54.1406 43.75 54.6875 43.75H61.25C61.7969 43.75 62.3438 44.2969 62.3438 44.8438V49.2188Z" fill="#D6EEF0"/>
<path d="M62.3438 38.2812C62.3438 38.8281 61.7969 39.375 61.25 39.375H54.6875C54.1406 39.375 53.5938 38.8281 53.5938 38.2812V33.9062C53.5938 33.3594 54.1406 32.8125 54.6875 32.8125H61.25C61.7969 32.8125 62.3438 33.3594 62.3438 33.9062V38.2812Z" fill="#D6EEF0"/>
<path d="M61.25 39.9219H54.6875C53.8125 39.9219 53.0469 39.1562 53.0469 38.2812V33.9062C53.0469 33.0312 53.8125 32.2656 54.6875 32.2656H61.25C62.125 32.2656 62.8906 33.0312 62.8906 33.9062V38.2812C62.8906 39.1562 62.125 39.9219 61.25 39.9219ZM54.6875 33.3594C54.3594 33.3594 54.1406 33.5781 54.1406 33.9062V38.2812C54.1406 38.6094 54.3594 38.8281 54.6875 38.8281H61.25C61.5781 38.8281 61.7969 38.6094 61.7969 38.2812V33.9062C61.7969 33.5781 61.5781 33.3594 61.25 33.3594H54.6875Z" fill="#DBB471"/>
<path d="M57.4219 32.8125H58.5156V39.375H57.4219V32.8125Z" fill="#DBB471"/>
<path d="M61.25 51.4062H54.6875C53.8125 51.4062 53.0469 50.6406 53.0469 49.7656V45.3906C53.0469 44.5156 53.8125 43.75 54.6875 43.75H61.25C62.125 43.75 62.8906 44.5156 62.8906 45.3906V49.7656C62.8906 50.6406 62.125 51.4062 61.25 51.4062ZM54.6875 44.8438C54.3594 44.8438 54.1406 45.0625 54.1406 45.3906V49.7656C54.1406 50.0938 54.3594 50.3125 54.6875 50.3125H61.25C61.5781 50.3125 61.7969 50.0938 61.7969 49.7656V45.3906C61.7969 45.0625 61.5781 44.8438 61.25 44.8438H54.6875Z" fill="#DBB471"/>
<path d="M57.4219 44.2969H58.5156V50.8594H57.4219V44.2969Z" fill="#DBB471"/>
<path d="M62.3438 60.1562C62.3438 60.7031 61.7969 61.25 61.25 61.25H54.6875C54.1406 61.25 53.5938 60.7031 53.5938 60.1562V55.7812C53.5938 55.2344 54.1406 54.6875 54.6875 54.6875H61.25C61.7969 54.6875 62.3438 55.2344 62.3438 55.7812V60.1562Z" fill="#D6EEF0"/>
<path d="M61.25 62.3438H54.6875C53.8125 62.3438 53.0469 61.5781 53.0469 60.7031V56.3281C53.0469 55.4531 53.8125 54.6875 54.6875 54.6875H61.25C62.125 54.6875 62.8906 55.4531 62.8906 56.3281V60.7031C62.8906 61.5781 62.125 62.3438 61.25 62.3438ZM54.6875 55.7812C54.3594 55.7812 54.1406 56 54.1406 56.3281V60.7031C54.1406 61.0312 54.3594 61.25 54.6875 61.25H61.25C61.5781 61.25 61.7969 61.0312 61.7969 60.7031V56.3281C61.7969 56 61.5781 55.7812 61.25 55.7812H54.6875Z" fill="#DBB471"/>
<path d="M57.4219 55.2344H58.5156V61.7969H57.4219V55.2344Z" fill="#DBB471"/>
<path d="M35.875 12.6875C35.4375 12.3594 34.6719 12.3594 34.125 12.6875L12.9062 29.9688C12.4687 30.2969 12.4687 30.625 13.125 30.625H56.875C57.4219 30.625 57.6406 30.2969 57.0937 29.9688L35.875 12.6875Z" fill="#F15744"/>
<path d="M52.7189 29.9688L35.8751 15.9688C35.4376 15.5313 34.672 15.5313 34.2345 15.9688L17.2814 29.9688C16.7345 30.2969 16.8439 30.625 17.5001 30.625H19.6876V65.625H50.3126V30.625H52.5001C53.047 30.625 53.2657 30.2969 52.7189 29.9688Z" fill="#F9F3D9"/>
<path d="M26.25 49.2188H43.75V65.625H26.25V49.2188Z" fill="#E5DEC1"/>
<path d="M28.4375 49.2188H41.5625V65.625H28.4375V49.2188Z" fill="#42ADE2"/>
<path d="M22.0938 41.5625C22.4219 41.6719 22.8594 41.7813 23.2969 41.7813C23.8437 41.7813 24.0625 41.5625 24.0625 41.3437C24.0625 41.125 23.8437 40.9062 23.2969 40.7969C22.5312 40.5781 21.9844 40.1406 21.9844 39.5938C21.9844 38.8281 22.6406 38.2812 23.8437 38.2812C24.3906 38.2812 24.8281 38.3906 25.0469 38.5L24.8281 39.2656C24.6094 39.1563 24.2812 39.0469 23.8437 39.0469C23.4062 39.0469 23.1875 39.2656 23.1875 39.4844C23.1875 39.7031 23.4062 39.9219 24.0625 40.0312C24.9375 40.3594 25.2656 40.6875 25.2656 41.3437C25.2656 42 24.6094 42.6562 23.2969 42.6562C22.75 42.6562 22.2031 42.5469 21.9844 42.4375L22.0938 41.5625Z" fill="#89664C"/>
<path d="M29.4219 42.4375C29.2031 42.5469 28.7656 42.6562 28.2187 42.6562C26.5781 42.6562 25.7031 41.7812 25.7031 40.5781C25.7031 39.1562 26.9062 38.2812 28.3281 38.2812C28.875 38.2812 29.3125 38.3906 29.5312 38.5L29.3125 39.2656C29.0937 39.1563 28.7656 39.1562 28.4375 39.1562C27.5625 39.1562 26.9063 39.5937 26.9063 40.5781C26.9063 41.4531 27.4531 42 28.4375 42C28.7656 42 29.0937 41.8906 29.3125 41.8906L29.4219 42.4375Z" fill="#89664C"/>
<path d="M31.1719 38.3906V40.0312H32.9219V38.3906H34.0156V42.6562H32.9219V40.9062H31.1719V42.6562H30.0781V38.3906H31.1719Z" fill="#89664C"/>
<path d="M39.375 40.4688C39.375 41.8906 38.3906 42.6562 37.0781 42.6562C35.6563 42.6562 34.7812 41.6719 34.7812 40.4688C34.7812 39.1562 35.6563 38.2812 37.0781 38.2812C38.5 38.2812 39.375 39.2656 39.375 40.4688ZM35.875 40.4688C35.875 41.3438 36.3125 41.8906 37.0781 41.8906C37.8438 41.8906 38.1719 41.2344 38.1719 40.4688C38.1719 39.7031 37.7344 39.0469 36.9688 39.0469C36.3125 39.0469 35.875 39.7031 35.875 40.4688Z" fill="#89664C"/>
<path d="M44.4062 40.4688C44.4062 41.8906 43.4219 42.6562 42.1094 42.6562C40.6875 42.6562 39.8125 41.6719 39.8125 40.4688C39.8125 39.1562 40.6875 38.2812 42.1094 38.2812C43.6406 38.2812 44.4062 39.2656 44.4062 40.4688ZM41.0156 40.4688C41.0156 41.3438 41.4531 41.8906 42.2187 41.8906C42.9844 41.8906 43.3125 41.2344 43.3125 40.4688C43.3125 39.7031 42.875 39.0469 42.1094 39.0469C41.4531 39.0469 41.0156 39.7031 41.0156 40.4688Z" fill="#89664C"/>
<path d="M45.1719 38.3906H46.2656V41.7813H48.125V42.5469H45.1719V38.3906Z" fill="#89664C"/>
<path d="M35 36.0938C39.2284 36.0938 42.6562 32.6659 42.6562 28.4375C42.6562 24.2091 39.2284 20.7812 35 20.7812C30.7716 20.7812 27.3438 24.2091 27.3438 28.4375C27.3438 32.6659 30.7716 36.0938 35 36.0938Z" fill="#DBB471"/>
<path d="M35 33.9062C38.0203 33.9062 40.4688 31.4578 40.4688 28.4375C40.4688 25.4172 38.0203 22.9688 35 22.9688C31.9797 22.9688 29.5312 25.4172 29.5312 28.4375C29.5312 31.4578 31.9797 33.9062 35 33.9062Z" fill="white"/>
<path d="M34.4531 49.2188H35.5469V65.625H34.4531V49.2188Z" fill="#E5DEC1"/>
<path d="M35 24.0625C34.4531 24.0625 33.9062 24.6094 33.9062 25.1562V29.5312C33.9062 30.0781 34.4531 30.625 35 30.625C35.5469 30.625 36.0938 30.0781 36.0938 29.5312V25.1562C36.0938 24.6094 35.5469 24.0625 35 24.0625Z" fill="#B2C1C0"/>
<path d="M35 28.4375H32.8125C32.2656 28.4375 31.7188 28.9844 31.7188 29.5312C31.7188 30.0781 32.2656 30.625 32.8125 30.625H35C35.5469 30.625 36.0938 30.0781 36.0938 29.5312C36.0938 28.9844 35.5469 28.4375 35 28.4375Z" fill="#F15744"/>
<path d="M36.0938 2.1875V10.2812C40.4688 13.7813 44.8438 2.73437 49.2188 6.23438C44.8438 -2.38419e-07 40.4688 8.3125 36.0938 2.1875Z" fill="#B4D7EE"/>
<path d="M35.9844 44.0781C35.4375 43.6406 34.4531 43.6406 33.9062 44.0781C31.6094 45.7187 24.0625 50.3125 24.0625 50.3125V52.5H45.9375V50.3125C45.9375 50.3125 38.3906 45.7187 35.9844 44.0781Z" fill="#F15744"/>
<path d="M68.9062 65.625H1.09375C0.4375 65.625 0 66.1719 0 66.7188V68.9062C0 69.4531 0.4375 70 1.09375 70H68.9062C69.4531 70 70 69.4531 70 68.9062V66.7188C70 66.1719 69.4531 65.625 68.9062 65.625Z" fill="#666666"/>
<path d="M21.875 67.8125H48.125V70H21.875V67.8125Z" fill="#E8E8E8"/>
<path d="M24.0625 65.625H45.9375V67.8125H24.0625V65.625Z" fill="#D0D0D0"/>
<path d="M31.8281 58.5156H33.3594V59.2812H31.8281V58.5156Z" fill="#666666"/>
<path d="M36.6406 58.5156H38.1719V59.2812H36.6406V58.5156Z" fill="#666666"/>
</g>
<path d="M92.8032 46.3369C92.8032 45.6452 92.5591 45.1162 92.0708 44.75C91.5825 44.3757 90.7036 43.985 89.4341 43.5781C88.1646 43.1631 87.1595 42.7562 86.4189 42.3574C84.4007 41.2669 83.3916 39.798 83.3916 37.9507C83.3916 36.9904 83.6602 36.1359 84.1973 35.3872C84.7425 34.6304 85.5197 34.0404 86.5288 33.6172C87.5461 33.194 88.6854 32.9824 89.9468 32.9824C91.2163 32.9824 92.3475 33.2144 93.3403 33.6782C94.3332 34.134 95.1022 34.7809 95.6475 35.6191C96.2008 36.4574 96.4775 37.4095 96.4775 38.4756H92.8154C92.8154 37.6618 92.5591 37.0311 92.0464 36.5835C91.5337 36.1278 90.8135 35.8999 89.8857 35.8999C88.9906 35.8999 88.2948 36.0911 87.7983 36.4736C87.3019 36.848 87.0537 37.3444 87.0537 37.9629C87.0537 38.5407 87.3426 39.0249 87.9204 39.4155C88.5063 39.8062 89.3649 40.1724 90.4961 40.5142C92.5794 41.1408 94.0972 41.918 95.0493 42.8457C96.0015 43.7734 96.4775 44.929 96.4775 46.3125C96.4775 47.8506 95.8957 49.0591 94.7319 49.938C93.5682 50.8088 92.0016 51.2441 90.0322 51.2441C88.665 51.2441 87.4199 50.9959 86.2969 50.4995C85.1738 49.995 84.3153 49.3073 83.7212 48.4365C83.1353 47.5658 82.8423 46.5566 82.8423 45.4092H86.5166C86.5166 47.3704 87.6885 48.3511 90.0322 48.3511C90.903 48.3511 91.5825 48.1761 92.0708 47.8262C92.5591 47.4681 92.8032 46.9717 92.8032 46.3369ZM103.753 33.2266L108.318 46.1172L112.859 33.2266H117.669V51H113.995V46.1416L114.361 37.7554L109.563 51H107.049L102.264 37.7676L102.63 46.1416V51H98.9678V33.2266H103.753ZM126.434 43.8711L124.529 45.9219V51H120.867V33.2266H124.529V41.2832L126.141 39.0737L130.669 33.2266H135.174L128.863 41.1245L135.357 51H130.999L126.434 43.8711ZM145.953 46.3369C145.953 45.6452 145.708 45.1162 145.22 44.75C144.732 44.3757 143.853 43.985 142.583 43.5781C141.314 43.1631 140.309 42.7562 139.568 42.3574C137.55 41.2669 136.541 39.798 136.541 37.9507C136.541 36.9904 136.81 36.1359 137.347 35.3872C137.892 34.6304 138.669 34.0404 139.678 33.6172C140.695 33.194 141.835 32.9824 143.096 32.9824C144.366 32.9824 145.497 33.2144 146.49 33.6782C147.483 34.134 148.252 34.7809 148.797 35.6191C149.35 36.4574 149.627 37.4095 149.627 38.4756H145.965C145.965 37.6618 145.708 37.0311 145.196 36.5835C144.683 36.1278 143.963 35.8999 143.035 35.8999C142.14 35.8999 141.444 36.0911 140.948 36.4736C140.451 36.848 140.203 37.3444 140.203 37.9629C140.203 38.5407 140.492 39.0249 141.07 39.4155C141.656 39.8062 142.514 40.1724 143.646 40.5142C145.729 41.1408 147.247 41.918 148.199 42.8457C149.151 43.7734 149.627 44.929 149.627 46.3125C149.627 47.8506 149.045 49.0591 147.881 49.938C146.718 50.8088 145.151 51.2441 143.182 51.2441C141.814 51.2441 140.569 50.9959 139.446 50.4995C138.323 49.995 137.465 49.3073 136.871 48.4365C136.285 47.5658 135.992 46.5566 135.992 45.4092H139.666C139.666 47.3704 140.838 48.3511 143.182 48.3511C144.052 48.3511 144.732 48.1761 145.22 47.8262C145.708 47.4681 145.953 46.9717 145.953 46.3369ZM172.295 45.0796C172.157 46.992 171.449 48.4976 170.171 49.5962C168.902 50.6948 167.225 51.2441 165.142 51.2441C162.863 51.2441 161.069 50.4792 159.759 48.9492C158.457 47.4111 157.806 45.3034 157.806 42.626V41.5396C157.806 39.8306 158.107 38.325 158.709 37.0229C159.311 35.7209 160.17 34.724 161.285 34.0322C162.408 33.3324 163.71 32.9824 165.191 32.9824C167.242 32.9824 168.894 33.5317 170.147 34.6304C171.4 35.729 172.125 37.2712 172.32 39.2568H168.658C168.568 38.1094 168.247 37.2793 167.693 36.7666C167.148 36.2458 166.314 35.9854 165.191 35.9854C163.97 35.9854 163.055 36.4248 162.444 37.3037C161.842 38.1745 161.533 39.5295 161.517 41.3687V42.7114C161.517 44.632 161.806 46.0358 162.383 46.9229C162.969 47.8099 163.889 48.2534 165.142 48.2534C166.273 48.2534 167.116 47.9971 167.669 47.4844C168.23 46.9635 168.552 46.1619 168.633 45.0796H172.295ZM184.734 47.3379H178.313L177.093 51H173.199L179.815 33.2266H183.208L189.861 51H185.967L184.734 47.3379ZM179.302 44.3716H183.746L181.512 37.7188L179.302 44.3716ZM197.088 43.8711L195.184 45.9219V51H191.521V33.2266H195.184V41.2832L196.795 39.0737L201.324 33.2266H205.828L199.517 41.1245L206.011 51H201.653L197.088 43.8711ZM213.97 44.4937H211.053V51H207.391V33.2266H213.995C216.094 33.2266 217.714 33.6945 218.853 34.6304C219.992 35.5662 220.562 36.8887 220.562 38.5977C220.562 39.8102 220.298 40.8234 219.769 41.6372C219.248 42.4429 218.454 43.0858 217.388 43.5659L221.233 50.8291V51H217.303L213.97 44.4937ZM211.053 41.5273H214.007C214.926 41.5273 215.639 41.2954 216.143 40.8315C216.648 40.3595 216.9 39.7126 216.9 38.8906C216.9 38.0524 216.66 37.3932 216.18 36.9131C215.708 36.4329 214.979 36.1929 213.995 36.1929H211.053V41.5273ZM233.392 47.3379H226.971L225.75 51H221.856L228.472 33.2266H231.866L238.519 51H234.625L233.392 47.3379ZM227.959 44.3716H232.403L230.169 37.7188L227.959 44.3716ZM253.533 45.873L255.926 33.2266H259.576L255.633 51H251.946L249.053 39.1104L246.16 51H242.474L238.531 33.2266H242.181L244.585 45.8486L247.515 33.2266H250.616L253.533 45.873ZM271.062 47.3379H264.642L263.421 51H259.527L266.143 33.2266H269.537L276.189 51H272.295L271.062 47.3379ZM265.63 44.3716H270.074L267.84 37.7188L265.63 44.3716ZM281.512 48.0581H289.288V51H277.85V33.2266H281.512V48.0581ZM301.678 47.3379H295.257L294.036 51H290.142L296.758 33.2266H300.152L306.805 51H302.911L301.678 47.3379ZM296.246 44.3716H300.689L298.455 37.7188L296.246 44.3716ZM82.8252 66V56.7578H86.0625C87.1839 56.7578 88.0345 56.9736 88.6143 57.4053C89.194 57.8327 89.4839 58.4611 89.4839 59.2905C89.4839 59.7433 89.3675 60.1432 89.1348 60.4902C88.902 60.833 88.5783 61.0848 88.1636 61.2456C88.6375 61.3641 89.0099 61.6032 89.2808 61.9629C89.5558 62.3226 89.6934 62.7627 89.6934 63.2832C89.6934 64.1719 89.4098 64.8447 88.8428 65.3018C88.2757 65.7588 87.4674 65.9915 86.418 66H82.8252ZM84.7295 61.9756V64.4702H86.3608C86.8094 64.4702 87.1585 64.3644 87.4082 64.1528C87.6621 63.937 87.7891 63.6408 87.7891 63.2642C87.7891 62.4178 87.3511 61.9883 86.4751 61.9756H84.7295ZM84.7295 60.6299H86.1387C87.0993 60.613 87.5796 60.23 87.5796 59.481C87.5796 59.062 87.4569 58.7616 87.2114 58.5796C86.9702 58.3934 86.5872 58.3003 86.0625 58.3003H84.7295V60.6299ZM94.1685 66.127C93.1613 66.127 92.3403 65.818 91.7056 65.2002C91.075 64.5824 90.7598 63.7593 90.7598 62.731V62.5532C90.7598 61.8634 90.8931 61.2477 91.1597 60.7061C91.4263 60.1602 91.8029 59.7412 92.2896 59.4492C92.7804 59.153 93.339 59.0049 93.9653 59.0049C94.9048 59.0049 95.6432 59.3011 96.1807 59.8936C96.7223 60.486 96.9932 61.326 96.9932 62.4136V63.1626H92.6196C92.6789 63.6112 92.8566 63.9709 93.1528 64.2417C93.4533 64.5125 93.832 64.6479 94.2891 64.6479C94.9958 64.6479 95.548 64.3919 95.9458 63.8799L96.8472 64.8892C96.5721 65.2785 96.1997 65.5832 95.73 65.8032C95.2603 66.019 94.7397 66.127 94.1685 66.127ZM93.959 60.4902C93.5951 60.4902 93.2988 60.613 93.0703 60.8584C92.846 61.1038 92.7021 61.4551 92.6387 61.9121H95.1904V61.7661C95.182 61.3599 95.0719 61.0467 94.8604 60.8267C94.6488 60.6024 94.3483 60.4902 93.959 60.4902ZM101.9 60.8521C101.65 60.8182 101.43 60.8013 101.24 60.8013C100.546 60.8013 100.091 61.0361 99.875 61.5059V66H98.0405V59.1318H99.7734L99.8242 59.9507C100.192 59.3201 100.702 59.0049 101.354 59.0049C101.557 59.0049 101.748 59.0324 101.925 59.0874L101.9 60.8521ZM105.283 63.2451L104.623 63.9053V66H102.789V56.25H104.623V61.6519L104.979 61.1948L106.737 59.1318H108.939L106.458 61.9946L109.155 66H107.048L105.283 63.2451ZM113.713 66C113.628 65.835 113.567 65.6297 113.529 65.3843C113.084 65.8794 112.507 66.127 111.796 66.127C111.123 66.127 110.564 65.9323 110.12 65.543C109.68 65.1536 109.46 64.6628 109.46 64.0703C109.46 63.3424 109.729 62.7839 110.266 62.3945C110.808 62.0052 111.589 61.8084 112.608 61.8042H113.453V61.4106C113.453 61.0933 113.37 60.8394 113.205 60.6489C113.044 60.4585 112.788 60.3633 112.437 60.3633C112.128 60.3633 111.885 60.4373 111.707 60.5854C111.534 60.7336 111.447 60.9367 111.447 61.1948H109.612C109.612 60.797 109.735 60.4289 109.98 60.0903C110.226 59.7518 110.573 59.4873 111.021 59.2969C111.47 59.1022 111.974 59.0049 112.532 59.0049C113.379 59.0049 114.049 59.2186 114.544 59.646C115.044 60.0692 115.293 60.6659 115.293 61.436V64.4131C115.298 65.0648 115.389 65.5578 115.566 65.8921V66H113.713ZM112.196 64.7241C112.467 64.7241 112.716 64.6649 112.945 64.5464C113.173 64.4237 113.343 64.2607 113.453 64.0576V62.877H112.767C111.849 62.877 111.36 63.1943 111.301 63.8291L111.294 63.937C111.294 64.1655 111.375 64.3538 111.536 64.502C111.696 64.6501 111.917 64.7241 112.196 64.7241ZM120.562 60.8521C120.312 60.8182 120.092 60.8013 119.902 60.8013C119.208 60.8013 118.753 61.0361 118.537 61.5059V66H116.703V59.1318H118.436L118.486 59.9507C118.854 59.3201 119.364 59.0049 120.016 59.0049C120.219 59.0049 120.41 59.0324 120.587 59.0874L120.562 60.8521ZM125.24 66C125.156 65.835 125.094 65.6297 125.056 65.3843C124.612 65.8794 124.034 66.127 123.323 66.127C122.65 66.127 122.092 65.9323 121.647 65.543C121.207 65.1536 120.987 64.6628 120.987 64.0703C120.987 63.3424 121.256 62.7839 121.793 62.3945C122.335 62.0052 123.116 61.8084 124.136 61.8042H124.98V61.4106C124.98 61.0933 124.897 60.8394 124.732 60.6489C124.572 60.4585 124.316 60.3633 123.964 60.3633C123.655 60.3633 123.412 60.4373 123.234 60.5854C123.061 60.7336 122.974 60.9367 122.974 61.1948H121.14C121.14 60.797 121.262 60.4289 121.508 60.0903C121.753 59.7518 122.1 59.4873 122.549 59.2969C122.997 59.1022 123.501 59.0049 124.06 59.0049C124.906 59.0049 125.577 59.2186 126.072 59.646C126.571 60.0692 126.821 60.6659 126.821 61.436V64.4131C126.825 65.0648 126.916 65.5578 127.094 65.8921V66H125.24ZM123.723 64.7241C123.994 64.7241 124.244 64.6649 124.472 64.5464C124.701 64.4237 124.87 64.2607 124.98 64.0576V62.877H124.294C123.376 62.877 122.887 63.1943 122.828 63.8291L122.822 63.937C122.822 64.1655 122.902 64.3538 123.063 64.502C123.224 64.6501 123.444 64.7241 123.723 64.7241ZM130.725 63.2451L130.064 63.9053V66H128.23V56.25H130.064V61.6519L130.42 61.1948L132.178 59.1318H134.381L131.899 61.9946L134.597 66H132.489L130.725 63.2451ZM137.371 57.4434V59.1318H138.545V60.4775H137.371V63.9053C137.371 64.1592 137.419 64.3411 137.517 64.4512C137.614 64.5612 137.8 64.6162 138.075 64.6162C138.278 64.6162 138.458 64.6014 138.615 64.5718V65.9619C138.255 66.0719 137.885 66.127 137.504 66.127C136.217 66.127 135.562 65.4774 135.536 64.1782V60.4775H134.533V59.1318H135.536V57.4434H137.371ZM142.728 66.127C141.721 66.127 140.9 65.818 140.265 65.2002C139.635 64.5824 139.319 63.7593 139.319 62.731V62.5532C139.319 61.8634 139.453 61.2477 139.719 60.7061C139.986 60.1602 140.362 59.7412 140.849 59.4492C141.34 59.153 141.899 59.0049 142.525 59.0049C143.464 59.0049 144.203 59.3011 144.74 59.8936C145.282 60.486 145.553 61.326 145.553 62.4136V63.1626H141.179C141.238 63.6112 141.416 63.9709 141.712 64.2417C142.013 64.5125 142.392 64.6479 142.849 64.6479C143.555 64.6479 144.108 64.3919 144.505 63.8799L145.407 64.8892C145.132 65.2785 144.759 65.5832 144.29 65.8032C143.82 66.019 143.299 66.127 142.728 66.127ZM142.519 60.4902C142.155 60.4902 141.858 60.613 141.63 60.8584C141.406 61.1038 141.262 61.4551 141.198 61.9121H143.75V61.7661C143.742 61.3599 143.632 61.0467 143.42 60.8267C143.208 60.6024 142.908 60.4902 142.519 60.4902ZM150.459 60.8521C150.21 60.8182 149.99 60.8013 149.799 60.8013C149.105 60.8013 148.65 61.0361 148.435 61.5059V66H146.6V59.1318H148.333L148.384 59.9507C148.752 59.3201 149.262 59.0049 149.914 59.0049C150.117 59.0049 150.307 59.0324 150.485 59.0874L150.459 60.8521ZM150.72 68.3169L149.761 67.8154L149.99 67.4028C150.273 66.8866 150.419 66.3724 150.428 65.8604V64.4385H151.977L151.97 65.708C151.966 66.1777 151.847 66.6517 151.615 67.1299C151.382 67.6081 151.084 68.0037 150.72 68.3169ZM156.775 66V56.7578H160.013C161.134 56.7578 161.985 56.9736 162.564 57.4053C163.144 57.8327 163.434 58.4611 163.434 59.2905C163.434 59.7433 163.318 60.1432 163.085 60.4902C162.852 60.833 162.528 61.0848 162.114 61.2456C162.588 61.3641 162.96 61.6032 163.231 61.9629C163.506 62.3226 163.644 62.7627 163.644 63.2832C163.644 64.1719 163.36 64.8447 162.793 65.3018C162.226 65.7588 161.418 65.9915 160.368 66H156.775ZM158.68 61.9756V64.4702H160.311C160.76 64.4702 161.109 64.3644 161.358 64.1528C161.612 63.937 161.739 63.6408 161.739 63.2642C161.739 62.4178 161.301 61.9883 160.425 61.9756H158.68ZM158.68 60.6299H160.089C161.049 60.613 161.53 60.23 161.53 59.481C161.53 59.062 161.407 58.7616 161.162 58.5796C160.92 58.3934 160.537 58.3003 160.013 58.3003H158.68V60.6299ZM168.119 66.127C167.111 66.127 166.291 65.818 165.656 65.2002C165.025 64.5824 164.71 63.7593 164.71 62.731V62.5532C164.71 61.8634 164.843 61.2477 165.11 60.7061C165.376 60.1602 165.753 59.7412 166.24 59.4492C166.731 59.153 167.289 59.0049 167.916 59.0049C168.855 59.0049 169.593 59.3011 170.131 59.8936C170.673 60.486 170.943 61.326 170.943 62.4136V63.1626H166.57C166.629 63.6112 166.807 63.9709 167.103 64.2417C167.403 64.5125 167.782 64.6479 168.239 64.6479C168.946 64.6479 169.498 64.3919 169.896 63.8799L170.797 64.8892C170.522 65.2785 170.15 65.5832 169.68 65.8032C169.21 66.019 168.69 66.127 168.119 66.127ZM167.909 60.4902C167.545 60.4902 167.249 60.613 167.021 60.8584C166.796 61.1038 166.652 61.4551 166.589 61.9121H169.141V61.7661C169.132 61.3599 169.022 61.0467 168.811 60.8267C168.599 60.6024 168.299 60.4902 167.909 60.4902ZM175.85 60.8521C175.6 60.8182 175.38 60.8013 175.19 60.8013C174.496 60.8013 174.041 61.0361 173.825 61.5059V66H171.991V59.1318H173.724L173.774 59.9507C174.143 59.3201 174.653 59.0049 175.304 59.0049C175.507 59.0049 175.698 59.0324 175.875 59.0874L175.85 60.8521ZM182.826 63.5054L183.728 59.1318H185.499L183.747 66H182.21L180.909 61.6772L179.608 66H178.078L176.326 59.1318H178.097L178.992 63.499L180.249 59.1318H181.576L182.826 63.5054ZM190.393 66C190.308 65.835 190.247 65.6297 190.208 65.3843C189.764 65.8794 189.187 66.127 188.476 66.127C187.803 66.127 187.244 65.9323 186.8 65.543C186.36 65.1536 186.14 64.6628 186.14 64.0703C186.14 63.3424 186.408 62.7839 186.946 62.3945C187.487 62.0052 188.268 61.8084 189.288 61.8042H190.132V61.4106C190.132 61.0933 190.05 60.8394 189.885 60.6489C189.724 60.4585 189.468 60.3633 189.117 60.3633C188.808 60.3633 188.564 60.4373 188.387 60.5854C188.213 60.7336 188.126 60.9367 188.126 61.1948H186.292C186.292 60.797 186.415 60.4289 186.66 60.0903C186.906 59.7518 187.253 59.4873 187.701 59.2969C188.15 59.1022 188.653 59.0049 189.212 59.0049C190.058 59.0049 190.729 59.2186 191.224 59.646C191.723 60.0692 191.973 60.6659 191.973 61.436V64.4131C191.977 65.0648 192.068 65.5578 192.246 65.8921V66H190.393ZM188.875 64.7241C189.146 64.7241 189.396 64.6649 189.625 64.5464C189.853 64.4237 190.022 64.2607 190.132 64.0576V62.877H189.447C188.528 62.877 188.04 63.1943 187.98 63.8291L187.974 63.937C187.974 64.1655 188.055 64.3538 188.215 64.502C188.376 64.6501 188.596 64.7241 188.875 64.7241ZM199.355 63.5054L200.257 59.1318H202.028L200.276 66H198.74L197.438 61.6772L196.137 66H194.607L192.855 59.1318H194.626L195.521 63.499L196.778 59.1318H198.105L199.355 63.5054ZM206.922 66C206.837 65.835 206.776 65.6297 206.738 65.3843C206.293 65.8794 205.716 66.127 205.005 66.127C204.332 66.127 203.773 65.9323 203.329 65.543C202.889 65.1536 202.669 64.6628 202.669 64.0703C202.669 63.3424 202.938 62.7839 203.475 62.3945C204.017 62.0052 204.798 61.8084 205.817 61.8042H206.662V61.4106C206.662 61.0933 206.579 60.8394 206.414 60.6489C206.253 60.4585 205.997 60.3633 205.646 60.3633C205.337 60.3633 205.094 60.4373 204.916 60.5854C204.743 60.7336 204.656 60.9367 204.656 61.1948H202.821C202.821 60.797 202.944 60.4289 203.189 60.0903C203.435 59.7518 203.782 59.4873 204.23 59.2969C204.679 59.1022 205.183 59.0049 205.741 59.0049C206.588 59.0049 207.258 59.2186 207.753 59.646C208.253 60.0692 208.502 60.6659 208.502 61.436V64.4131C208.507 65.0648 208.598 65.5578 208.775 65.8921V66H206.922ZM205.405 64.7241C205.676 64.7241 205.925 64.6649 206.154 64.5464C206.382 64.4237 206.552 64.2607 206.662 64.0576V62.877H205.976C205.058 62.877 204.569 63.1943 204.51 63.8291L204.503 63.937C204.503 64.1655 204.584 64.3538 204.745 64.502C204.905 64.6501 205.125 64.7241 205.405 64.7241ZM213.631 64.1021C213.631 63.8778 213.519 63.7021 213.295 63.5752C213.075 63.444 212.719 63.3276 212.229 63.2261C210.595 62.8833 209.778 62.1893 209.778 61.144C209.778 60.5347 210.03 60.0269 210.534 59.6206C211.042 59.2101 211.704 59.0049 212.521 59.0049C213.392 59.0049 214.088 59.2101 214.609 59.6206C215.134 60.0311 215.396 60.5643 215.396 61.2202H213.562C213.562 60.9578 213.477 60.742 213.308 60.5728C213.138 60.3993 212.874 60.3125 212.514 60.3125C212.205 60.3125 211.966 60.3823 211.797 60.522C211.628 60.6616 211.543 60.8394 211.543 61.0552C211.543 61.2583 211.638 61.4233 211.829 61.5503C212.023 61.673 212.349 61.7809 212.806 61.874C213.263 61.9629 213.648 62.0645 213.961 62.1787C214.931 62.5342 215.415 63.1499 215.415 64.0259C215.415 64.6522 215.146 65.16 214.609 65.5493C214.071 65.9344 213.377 66.127 212.527 66.127C211.951 66.127 211.439 66.0254 210.991 65.8223C210.546 65.6149 210.197 65.3335 209.943 64.978C209.689 64.6183 209.562 64.2311 209.562 63.8164H211.302C211.319 64.1423 211.439 64.3919 211.664 64.5654C211.888 64.7389 212.188 64.8257 212.565 64.8257C212.916 64.8257 213.181 64.7601 213.358 64.6289C213.54 64.4935 213.631 64.3179 213.631 64.1021ZM220.582 66C220.497 65.835 220.436 65.6297 220.398 65.3843C219.954 65.8794 219.376 66.127 218.665 66.127C217.992 66.127 217.434 65.9323 216.989 65.543C216.549 65.1536 216.329 64.6628 216.329 64.0703C216.329 63.3424 216.598 62.7839 217.135 62.3945C217.677 62.0052 218.458 61.8084 219.478 61.8042H220.322V61.4106C220.322 61.0933 220.239 60.8394 220.074 60.6489C219.913 60.4585 219.657 60.3633 219.306 60.3633C218.997 60.3633 218.754 60.4373 218.576 60.5854C218.403 60.7336 218.316 60.9367 218.316 61.1948H216.481C216.481 60.797 216.604 60.4289 216.85 60.0903C217.095 59.7518 217.442 59.4873 217.891 59.2969C218.339 59.1022 218.843 59.0049 219.401 59.0049C220.248 59.0049 220.918 59.2186 221.414 59.646C221.913 60.0692 222.163 60.6659 222.163 61.436V64.4131C222.167 65.0648 222.258 65.5578 222.436 65.8921V66H220.582ZM219.065 64.7241C219.336 64.7241 219.585 64.6649 219.814 64.5464C220.042 64.4237 220.212 64.2607 220.322 64.0576V62.877H219.636C218.718 62.877 218.229 63.1943 218.17 63.8291L218.164 63.937C218.164 64.1655 218.244 64.3538 218.405 64.502C218.566 64.6501 218.786 64.7241 219.065 64.7241ZM225.26 59.1318L225.317 59.9253C225.808 59.3117 226.466 59.0049 227.292 59.0049C228.019 59.0049 228.561 59.2186 228.917 59.646C229.272 60.0734 229.454 60.7124 229.462 61.563V66H227.628V61.6074C227.628 61.2181 227.543 60.9367 227.374 60.7632C227.205 60.5854 226.923 60.4966 226.53 60.4966C226.014 60.4966 225.626 60.7166 225.368 61.1567V66H223.534V59.1318H225.26ZM231.335 68.3169L230.376 67.8154L230.605 67.4028C230.889 66.8866 231.035 66.3724 231.043 65.8604V64.4385H232.592L232.585 65.708C232.581 66.1777 232.463 66.6517 232.23 67.1299C231.997 67.6081 231.699 68.0037 231.335 68.3169ZM237.391 66V56.7578H240.628C241.749 56.7578 242.6 56.9736 243.18 57.4053C243.759 57.8327 244.049 58.4611 244.049 59.2905C244.049 59.7433 243.933 60.1432 243.7 60.4902C243.467 60.833 243.144 61.0848 242.729 61.2456C243.203 61.3641 243.575 61.6032 243.846 61.9629C244.121 62.3226 244.259 62.7627 244.259 63.2832C244.259 64.1719 243.975 64.8447 243.408 65.3018C242.841 65.7588 242.033 65.9915 240.983 66H237.391ZM239.295 61.9756V64.4702H240.926C241.375 64.4702 241.724 64.3644 241.974 64.1528C242.228 63.937 242.354 63.6408 242.354 63.2642C242.354 62.4178 241.917 61.9883 241.041 61.9756H239.295ZM239.295 60.6299H240.704C241.665 60.613 242.145 60.23 242.145 59.481C242.145 59.062 242.022 58.7616 241.777 58.5796C241.536 58.3934 241.153 58.3003 240.628 58.3003H239.295V60.6299ZM248.734 66.127C247.727 66.127 246.906 65.818 246.271 65.2002C245.64 64.5824 245.325 63.7593 245.325 62.731V62.5532C245.325 61.8634 245.458 61.2477 245.725 60.7061C245.992 60.1602 246.368 59.7412 246.855 59.4492C247.346 59.153 247.904 59.0049 248.531 59.0049C249.47 59.0049 250.209 59.3011 250.746 59.8936C251.288 60.486 251.559 61.326 251.559 62.4136V63.1626H247.185C247.244 63.6112 247.422 63.9709 247.718 64.2417C248.019 64.5125 248.397 64.6479 248.854 64.6479C249.561 64.6479 250.113 64.3919 250.511 63.8799L251.413 64.8892C251.138 65.2785 250.765 65.5832 250.295 65.8032C249.826 66.019 249.305 66.127 248.734 66.127ZM248.524 60.4902C248.16 60.4902 247.864 60.613 247.636 60.8584C247.411 61.1038 247.268 61.4551 247.204 61.9121H249.756V61.7661C249.747 61.3599 249.637 61.0467 249.426 60.8267C249.214 60.6024 248.914 60.4902 248.524 60.4902ZM256.465 60.8521C256.216 60.8182 255.996 60.8013 255.805 60.8013C255.111 60.8013 254.656 61.0361 254.44 61.5059V66H252.606V59.1318H254.339L254.39 59.9507C254.758 59.3201 255.268 59.0049 255.919 59.0049C256.123 59.0049 256.313 59.0324 256.491 59.0874L256.465 60.8521ZM259.29 66H257.449V59.1318H259.29V66ZM257.341 57.3545C257.341 57.0794 257.432 56.853 257.614 56.6753C257.8 56.4976 258.052 56.4087 258.37 56.4087C258.683 56.4087 258.932 56.4976 259.119 56.6753C259.305 56.853 259.398 57.0794 259.398 57.3545C259.398 57.6338 259.303 57.8623 259.112 58.04C258.926 58.2178 258.679 58.3066 258.37 58.3066C258.061 58.3066 257.811 58.2178 257.621 58.04C257.434 57.8623 257.341 57.6338 257.341 57.3545ZM262.527 59.1318L262.584 59.8999C263.071 59.3032 263.729 59.0049 264.559 59.0049C265.443 59.0049 266.05 59.354 266.38 60.0522C266.863 59.354 267.55 59.0049 268.443 59.0049C269.188 59.0049 269.743 59.2228 270.106 59.6587C270.47 60.0903 270.652 60.742 270.652 61.6138V66H268.812V61.6201C268.812 61.2308 268.735 60.9473 268.583 60.7695C268.431 60.5876 268.162 60.4966 267.777 60.4966C267.227 60.4966 266.846 60.759 266.634 61.2837L266.641 66H264.806V61.6265C264.806 61.2287 264.728 60.9409 264.571 60.7632C264.415 60.5854 264.148 60.4966 263.771 60.4966C263.251 60.4966 262.874 60.7124 262.642 61.144V66H260.807V59.1318H262.527ZM276.048 66C275.963 65.835 275.902 65.6297 275.864 65.3843C275.419 65.8794 274.842 66.127 274.131 66.127C273.458 66.127 272.899 65.9323 272.455 65.543C272.015 65.1536 271.795 64.6628 271.795 64.0703C271.795 63.3424 272.064 62.7839 272.601 62.3945C273.143 62.0052 273.924 61.8084 274.943 61.8042H275.788V61.4106C275.788 61.0933 275.705 60.8394 275.54 60.6489C275.379 60.4585 275.123 60.3633 274.772 60.3633C274.463 60.3633 274.22 60.4373 274.042 60.5854C273.868 60.7336 273.782 60.9367 273.782 61.1948H271.947C271.947 60.797 272.07 60.4289 272.315 60.0903C272.561 59.7518 272.908 59.4873 273.356 59.2969C273.805 59.1022 274.309 59.0049 274.867 59.0049C275.714 59.0049 276.384 59.2186 276.879 59.646C277.379 60.0692 277.628 60.6659 277.628 61.436V64.4131C277.633 65.0648 277.724 65.5578 277.901 65.8921V66H276.048ZM274.531 64.7241C274.802 64.7241 275.051 64.6649 275.28 64.5464C275.508 64.4237 275.678 64.2607 275.788 64.0576V62.877H275.102C274.184 62.877 273.695 63.1943 273.636 63.8291L273.629 63.937C273.629 64.1655 273.71 64.3538 273.871 64.502C274.031 64.6501 274.251 64.7241 274.531 64.7241ZM280.726 59.1318L280.783 59.9253C281.274 59.3117 281.932 59.0049 282.757 59.0049C283.485 59.0049 284.027 59.2186 284.382 59.646C284.738 60.0734 284.92 60.7124 284.928 61.563V66H283.094V61.6074C283.094 61.2181 283.009 60.9367 282.84 60.7632C282.671 60.5854 282.389 60.4966 281.996 60.4966C281.479 60.4966 281.092 60.7166 280.834 61.1567V66H279V59.1318H280.726Z" fill="#34435E"/>
<defs>
<clipPath id="clip0">
<rect width="70" height="70" fill="white"/>
</clipPath>
</defs>
</svg>
